<svg aria-hidden="true" style="position: absolute; width: 0; height: 0; overflow: hidden;" version="1.1" xmlns="http://www.w3.org/2000/svg" xmlns:xlink="http://www.w3.org/1999/xlink">
<defs>
<symbol id="icon-basket" viewBox="0 0 27 32">
<path  d="M24.222 8.222h-4.667v-1.556c0-1.65-0.656-3.233-1.823-4.4s-2.749-1.822-4.4-1.822c-1.65 0-3.233 0.656-4.4 1.822s-1.822 2.75-1.822 4.4v1.556h-4.667c-0.413 0-0.808 0.164-1.1 0.456s-0.456 0.687-0.456 1.1v17.111c0 1.238 0.492 2.425 1.367 3.3s2.062 1.367 3.3 1.367h15.555c1.238 0 2.425-0.492 3.3-1.367s1.367-2.062 1.367-3.3v-17.111c0-0.413-0.164-0.808-0.456-1.1s-0.687-0.456-1.1-0.456zM10.222 6.667c0-0.825 0.328-1.616 0.911-2.2s1.375-0.911 2.2-0.911c0.825 0 1.616 0.328 2.2 0.911s0.911 1.375 0.911 2.2v1.556h-6.222v-1.556zM22.667 26.889c0 0.413-0.164 0.808-0.456 1.1s-0.687 0.456-1.1 0.456h-15.555c-0.413 0-0.808-0.164-1.1-0.456s-0.456-0.687-0.456-1.1v-15.556h3.111v1.556c0 0.413 0.164 0.808 0.456 1.1s0.687 0.456 1.1 0.456 0.808-0.164 1.1-0.456c0.292-0.292 0.456-0.687 0.456-1.1v-1.556h6.222v1.556c0 0.413 0.164 0.808 0.456 1.1s0.687 0.456 1.1 0.456 0.808-0.164 1.1-0.456c0.292-0.292 0.456-0.687 0.456-1.1v-1.556h3.111v15.556z"></path>
</symbol><symbol id="icon-menu" viewBox="0 0 32 32">
<path  d="M29.082 0.314h-4.009c-1.237 0-2.24 0.983-2.24 2.195v3.929c0 1.212 1.003 2.195 2.24 2.195h4.009c1.237 0 2.24-0.983 2.24-2.195v-3.929c0-1.212-1.003-2.195-2.24-2.195z"></path>
<path  d="M6.73 23.040h-4.318c-1.332 0-2.412 0.983-2.412 2.195v3.929c0 1.213 1.080 2.195 2.412 2.195h4.318c1.332 0 2.412-0.983 2.412-2.195v-3.929c0-1.212-1.080-2.195-2.412-2.195z"></path>
<path  d="M6.25 11.582h-4.009c-1.237 0-2.24 0.983-2.24 2.195v3.929c0 1.212 1.003 2.195 2.24 2.195h4.009c1.237 0 2.24-0.983 2.24-2.195v-3.929c0-1.212-1.003-2.195-2.24-2.195z"></path>
<path  d="M17.766 22.978h-4.009c-1.237 0-2.24 0.983-2.24 2.195l-0 3.929c0 1.212 1.003 2.195 2.241 2.195h4.009c1.237 0 2.24-0.983 2.24-2.195v-3.929c0-1.213-1.003-2.195-2.24-2.195z"></path>
<path  d="M6.25 0.086h-4.009c-1.237 0-2.24 0.983-2.24 2.195v3.929c0 1.212 1.003 2.195 2.24 2.195h4.009c1.237 0 2.24-0.983 2.24-2.195v-3.929c0-1.212-1.003-2.195-2.24-2.195z"></path>
<path  d="M18.076 11.697h-4.009c-1.237 0-2.24 0.983-2.24 2.195v3.929c0 1.212 1.003 2.195 2.24 2.195h4.009c1.237 0 2.24-0.983 2.24-2.195v-3.929c0-1.212-1.003-2.195-2.24-2.195z"></path>
<path  d="M29.333 22.978h-4.010c-1.237 0-2.24 0.983-2.24 2.195v3.929c0 1.212 1.003 2.195 2.24 2.195h4.009c1.237 0 2.24-0.983 2.24-2.195v-3.929c0-1.213-1.003-2.195-2.24-2.195z"></path>
<path  d="M17.591 0.224h-4.009c-1.237 0-2.24 0.983-2.24 2.195v3.929c0 1.212 1.003 2.195 2.24 2.195h4.009c1.237 0 2.24-0.984 2.24-2.196v-3.929c0-1.212-1.003-2.195-2.24-2.195z"></path>
<path  d="M29.044 11.926h-4.010c-1.237 0-2.24 0.983-2.24 2.195v3.929c0 1.212 1.003 2.195 2.24 2.195h4.009c1.237 0 2.24-0.983 2.24-2.195v-3.929c0-1.212-1.003-2.195-2.24-2.195z"></path>
</symbol><symbol id="icon-borde" viewBox="0 0 21 32">
<path d="M20.96 21.52v-11.040h-0.086v11.040h0.086zM20.96 10.48c0-5.788-4.692-10.48-10.48-10.48v0.086c5.74 0 10.394 4.653 10.394 10.394h0.086zM10.48 0c-5.788 0-10.48 4.692-10.48 10.48h0.086c0-5.74 4.653-10.394 10.394-10.394v-0.086zM0 10.48v11.040h0.086v-11.040h-0.086zM0 21.52c0 5.788 4.692 10.48 10.48 10.48v-0.086c-5.74 0-10.394-4.653-10.394-10.394h-0.086zM10.48 32c5.788 0 10.48-4.692 10.48-10.48h-0.086c0 5.74-4.653 10.394-10.394 10.394v0.086zM10.48-0.043c-5.812 0-10.523 4.711-10.523 10.523h0.086c0-5.764 4.673-10.437 10.437-10.437v-0.086zM-0.043 10.48v11.040h0.086v-11.040h-0.086zM-0.043 21.52c0 5.812 4.711 10.523 10.523 10.523v-0.086c-5.764 0-10.437-4.673-10.437-10.437h-0.086zM10.48 32.043c5.812 0 10.523-4.711 10.523-10.523h-0.086c0 5.764-4.673 10.437-10.437 10.437v0.086zM21.003 21.52v-11.040h-0.086v11.040h0.086zM21.003 10.48c0-5.812-4.711-10.523-10.523-10.523v0.086c5.764 0 10.437 4.673 10.437 10.437h0.086z"></path>
</symbol><symbol id="icon-menu-left" viewBox="0 0 32 32">
<path d="M2.667 7.993c0-0.733 0.595-1.327 1.327-1.327h10.68c0.352 0 0.689 0.14 0.938 0.389s0.389 0.586 0.389 0.938c0 0.352-0.14 0.689-0.389 0.938s-0.586 0.389-0.938 0.389h-10.68c-0.352 0-0.689-0.14-0.938-0.389s-0.389-0.586-0.389-0.938zM2.667 16c0-0.733 0.595-1.327 1.327-1.327h24.013c0.352 0 0.689 0.14 0.938 0.389s0.389 0.586 0.389 0.938c0 0.352-0.14 0.689-0.389 0.938s-0.586 0.389-0.938 0.389h-24.013c-0.352 0-0.689-0.14-0.938-0.389s-0.389-0.586-0.389-0.938zM3.993 22.68c-0.352 0-0.689 0.14-0.938 0.389s-0.389 0.586-0.389 0.938c0 0.352 0.14 0.689 0.389 0.938s0.586 0.389 0.938 0.389h16.013c0.352 0 0.689-0.14 0.938-0.389s0.389-0.586 0.389-0.938c0-0.352-0.14-0.689-0.389-0.938s-0.586-0.389-0.938-0.389h-16.013z"></path>
</symbol><symbol id="icon-closed" viewBox="0 0 32 32">
<path  stroke-linejoin="round" stroke-linecap="round" stroke-miterlimit="4" stroke-width="2.6667" d="M24 8l-16 16"></path>
<path  stroke-linejoin="round" stroke-linecap="round" stroke-miterlimit="4" stroke-width="2.6667" d="M8 8l16 16"></path></symbol>
</defs></svg>